<svg width="250" height="250" viewBox="0 0 250 250" fill="none" xmlns="http://www.w3.org/2000/svg">
<path d="M83.3332 187.5H166.667V166.666H83.3332V187.5ZM83.3332 145.833H166.667V125H83.3332V145.833ZM62.4999 229.166C56.7707 229.166 51.8644 227.125 47.7811 223.041C43.6978 218.958 41.6596 214.055 41.6665 208.333V41.6664C41.6665 35.9372 43.7082 31.0309 47.7915 26.9476C51.8749 22.8643 56.7776 20.8261 62.4999 20.833H145.833L208.333 83.333V208.333C208.333 214.062 206.292 218.968 202.208 223.052C198.125 227.135 193.222 229.173 187.5 229.166H62.4999ZM135.417 93.7497H187.5L135.417 41.6664V93.7497Z" fill="black"/>
</svg>
